<svg width="900" height="300" viewBox="0 0 900 300" fill="none" xmlns="http://www.w3.org/2000/svg">
  <defs>
    <filter id="textShadow" x="-30%" y="-30%" width="160%" height="160%">
      <feDropShadow dx="0" dy="1.5" stdDeviation="1.1" flood-color="#061012" flood-opacity="0.95"/>
    </filter>
    <filter id="softShadow" x="-30%" y="-30%" width="160%" height="160%">
      <feDropShadow dx="0" dy="2" stdDeviation="2" flood-color="#071011" flood-opacity="0.5"/>
    </filter>
    <linearGradient id="grass" x1="0" y1="0" x2="900" y2="300">
      <stop stop-color="#31573f"/>
      <stop offset="0.45" stop-color="#547845"/>
      <stop offset="1" stop-color="#274b53"/>
    </linearGradient>
    <linearGradient id="roof" x1="0" y1="0" x2="1" y2="1">
      <stop stop-color="#b96d5f"/>
      <stop offset="1" stop-color="#633c3d"/>
    </linearGradient>
  </defs>

  <rect width="900" height="300" fill="url(#grass)"/>

  <g opacity="0.9">
    <path d="M-24 44L940 -4" stroke="#30464c" stroke-width="18"/>
    <path d="M-16 84L940 30" stroke="#759278" stroke-width="10"/>
    <path d="M-10 126L920 86" stroke="#486b6f" stroke-width="9"/>
    <path d="M14 250C78 208 156 224 214 178C260 142 316 120 382 112" stroke="#829a88" stroke-width="15"/>
    <path d="M555 266C628 244 675 222 732 183C796 141 830 102 910 78" stroke="#819289" stroke-width="13"/>
  </g>

  <g opacity="0.98">
    <rect x="80" y="74" width="150" height="70" fill="url(#roof)" transform="rotate(-18 80 74)"/>
    <rect x="104" y="165" width="178" height="82" fill="url(#roof)" transform="rotate(-18 104 165)"/>
    <rect x="470" y="31" width="128" height="76" fill="#6f6c66" transform="rotate(-18 470 31)"/>
    <rect x="581" y="31" width="188" height="78" fill="url(#roof)" transform="rotate(-18 581 31)"/>
    <rect x="622" y="137" width="208" height="76" fill="url(#roof)" transform="rotate(-18 622 137)"/>
    <rect x="347" y="146" width="132" height="84" fill="#846c60" transform="rotate(-18 347 146)"/>
  </g>

  <g opacity="0.9">
    <path d="M391 -42L448 330" stroke="#d2c87d" stroke-width="48" stroke-linecap="round"/>
    <path d="M391 -42L448 330" stroke="#fbec9e" stroke-width="31" stroke-linecap="round"/>
    <path d="M390 -42L447 330" stroke="#454545" stroke-width="2" stroke-opacity="0.45"/>
    <path d="M422 -42L479 330" stroke="#454545" stroke-width="2" stroke-opacity="0.45"/>
    <path d="M-30 278L906 -6" stroke="#323c42" stroke-width="26" stroke-linecap="round"/>
    <path d="M-30 278L906 -6" stroke="#768f99" stroke-width="15" stroke-linecap="round"/>
    <path d="M714 -30L922 254" stroke="#2e3c42" stroke-width="27" stroke-linecap="round"/>
    <path d="M714 -30L922 254" stroke="#758f99" stroke-width="16" stroke-linecap="round"/>
  </g>

  <g opacity="0.8">
    <path d="M0 290L320 206" stroke="#cfc78f" stroke-width="9"/>
    <path d="M610 20L880 288" stroke="#cfc78f" stroke-width="8"/>
    <path d="M546 0L834 294" stroke="#cfc78f" stroke-width="6"/>
    <path d="M628 292L830 0" stroke="#cfc78f" stroke-width="7"/>
  </g>

  <g filter="url(#textShadow)" font-family="Arial, Helvetica, sans-serif" font-weight="700">
    <text x="5" y="37" fill="#eef5f2" font-size="22">Aeolis Aarhus Letbane</text>
    <text x="582" y="39" fill="#b9ef99" font-size="22">Frederiksbjerg</text>
    <text x="613" y="65" fill="#b9ef99" font-size="22">Bypark</text>
    <text x="37" y="181" fill="#f2c7c7" font-size="22">Langenæs Fodterapi</text>
    <text x="31" y="207" fill="#f2c7c7" font-size="22">- Statsautoriseret...</text>
    <text x="462" y="150" fill="#eef5f2" font-size="23">Læsøesgades Skole</text>
    <text x="365" y="254" fill="#eef5f2" font-size="20" transform="rotate(-70 365 254)">Nordborggade</text>
    <text x="710" y="102" fill="#eef5f2" font-size="20" transform="rotate(54 710 102)">Skt. Annagade</text>
    <text x="664" y="205" fill="#eef5f2" font-size="20" transform="rotate(-39 664 205)">Gerlachsgade</text>
    <text x="743" y="238" fill="#eef5f2" font-size="20" transform="rotate(-39 743 238)">Trekasgade</text>
    <text x="778" y="83" fill="#eef5f2" font-size="20" transform="rotate(54 778 83)">Hedemannsgade</text>
    <text x="876" y="22" fill="#eef5f2" font-size="20" transform="rotate(75 876 22)">Ingerslevsgade</text>
  </g>

  <g filter="url(#softShadow)">
    <rect x="404" y="82" width="22" height="20" rx="4" fill="#ffeb54"/>
    <text x="409" y="97" font-family="Arial, Helvetica, sans-serif" font-weight="700" font-size="14" fill="#576016">01</text>
    <rect x="499" y="193" width="20" height="20" rx="5" fill="#f7fbff"/>
    <path d="M505 200H513M505 205H513M507 210H511" stroke="#527a9a" stroke-width="2" stroke-linecap="round"/>
    <circle cx="270" cy="194" r="17" fill="#ff5d66"/>
    <path d="M261 194H279M270 185V203" stroke="white" stroke-width="4" stroke-linecap="round"/>
  </g>

  <g filter="url(#softShadow)">
    <path d="M453 98C433 98 416 114 416 134C416 162 453 201 453 201C453 201 490 162 490 134C490 114 473 98 453 98Z" fill="#d9312e"/>
    <circle cx="453" cy="133" r="13" fill="#9f221f"/>
  </g>
</svg>
