<svg width="45" height="45" viewBox="0 0 45 45" fill="none" xmlns="http://www.w3.org/2000/svg">
<path d="M30.7691 20.625H37.5004V16.875H30.7691L25.1441 11.25C23.6816 9.7875 21.3004 9.7875 19.8379 11.25L14.9816 16.1063C13.5191 17.5688 13.5191 19.95 14.9816 21.4125L20.6066 27.0375V35.6438H24.3566V27.0375C24.3566 26.0438 23.9629 25.0875 23.2504 24.3938L19.5004 20.6438L24.3566 15.7875L28.1066 19.5375C28.8191 20.25 29.7566 20.6438 30.7504 20.6438L30.7691 20.625ZM30.0004 3.75C29.0058 3.75 28.052 4.14509 27.3487 4.84835C26.6455 5.55161 26.2504 6.50544 26.2504 7.5C26.2504 8.49456 26.6455 9.44839 27.3487 10.1517C28.052 10.8549 29.0058 11.25 30.0004 11.25C30.995 11.25 31.9488 10.8549 32.652 10.1517C33.3553 9.44839 33.7504 8.49456 33.7504 7.5C33.7504 6.50544 33.3553 5.55161 32.652 4.84835C31.9488 4.14509 30.995 3.75 30.0004 3.75Z" fill="white"/>
<path d="M33.75 24.3938C29.6063 24.3938 26.25 27.75 26.25 31.8938C26.25 36.0375 29.6063 39.3938 33.75 39.3938C37.8937 39.3938 41.25 36.0375 41.25 31.8938C41.25 27.75 37.8937 24.3938 33.75 24.3938ZM33.75 35.6438C31.6875 35.6438 30 33.9563 30 31.8938C30 29.8313 31.6875 28.1438 33.75 28.1438C35.8125 28.1438 37.5 29.8313 37.5 31.8938C37.5 33.9563 35.8125 35.6438 33.75 35.6438ZM18.75 31.8938C18.75 27.75 15.3938 24.3938 11.25 24.3938C7.10625 24.3938 3.75 27.75 3.75 31.8938C3.75 36.0375 7.10625 39.3938 11.25 39.3938C15.3938 39.3938 18.75 36.0375 18.75 31.8938ZM7.5 31.8938C7.5 29.8313 9.1875 28.1438 11.25 28.1438C13.3125 28.1438 15 29.8313 15 31.8938C15 33.9563 13.3125 35.6438 11.25 35.6438C9.1875 35.6438 7.5 33.9563 7.5 31.8938Z" fill="white"/>
</svg>
